<?xml version="1.0" encoding="utf-8"?>
<!-- Generator: Adobe Illustrator 25.3.1, SVG Export Plug-In . SVG Version: 6.00 Build 0)  -->
<svg version="1.1" id="레이어_1" xmlns="http://www.w3.org/2000/svg" xmlns:xlink="http://www.w3.org/1999/xlink" x="0px"
	 y="0px" viewBox="0 0 220.44 237.33" style="enable-background:new 0 0 220.44 237.33;" xml:space="preserve">
<style type="text/css">
	.st0{fill:#5A6066;}
</style>
<g>
	<g>
		<path class="st0" d="M134.08,169.86c-7.78,17.19-21.33,34.3-49.75,34.3s-51.53-23.12-51.53-51.53c0-16.21,7.53-30.69,19.27-40.14
			l-2.32-21.3c-21.44,12.11-35.95,35.11-35.95,61.44c0,38.89,31.64,70.53,70.53,70.53c29.62,0,55.02-18.37,65.46-44.3l-11.44-23.59
			C138.02,158.19,138.08,161.03,134.08,169.86z"/>
	</g>
	<g>
		<path class="st0" d="M198.5,173.84l-18.99,9.02l-31.83-65.62H77.72l-1.3-11.94h46.74v-19H74.36l-3.13-28.77
			c6.98-4,11.69-11.52,11.69-20.14c0-12.81-10.39-23.2-23.2-23.2s-23.2,10.39-23.2,23.2c0,10.23,6.62,18.9,15.8,21.99l8.36,76.86
			h75.1l34.86,71.87l36.01-17.1L198.5,173.84z"/>
	</g>
</g>
</svg>
