{"asset":{"version":"2.0","generator":"GLTFExporter"},"scenes":[{"nodes":[0],"name":"AuxScene"}],"scene":0,"nodes":[{"mesh":0}],"bufferViews":[{"buffer":0,"byteOffset":0,"byteLength":61200,"target":34962,"byteStride":12},{"buffer":0,"byteOffset":61200,"byteLength":61200,"target":34962,"byteStride":12},{"buffer":0,"byteOffset":122400,"byteLength":61200,"target":34962,"byteStride":12},{"buffer":0,"byteOffset":183600,"byteLength":40800,"target":34962,"byteStride":8}],"buffers":[{"byteLength":224400,"uri":"data:application/octet-stream;base64,"}],"accessors":[{"bufferView":0,"componentType":5126,"count":5100,"max":[6.144735813140869,12,6.995933532714844],"min":[-3.9111363887786865,9,-2.746964693069458],"type":"VEC3"},{"bufferView":1,"componentType":5126,"count":5100,"max":[0.9581854343414307,1,0.9575837254524231],"min":[-0.9581854343414307,-1,-0.9575837254524231],"type":"VEC3"},{"bufferView":2,"componentType":5126,"count":5100,"max":[1,1,1],"min":[1,1,1],"type":"VEC3"},{"bufferView":3,"componentType":5126,"count":5100,"max":[6.144735813140869,2.746964693069458],"min":[-6.995933532714844,-6.995933532714844],"type":"VEC2"}],"materials":[{"pbrMetallicRoughness":{"metallicFactor":0.5,"roughnessFactor":0.5}}],"meshes":[{"primitives":[{"mode":4,"attributes":{"POSITION":0,"NORMAL":1,"COLOR_0":2,"TEXCOORD_0":3},"material":0}]}]}